<svg xmlns="http://www.w3.org/2000/svg" viewBox="0 0 1200 360"><defs><linearGradient id="g"><stop stop-color="#00e5ff"/><stop offset=".5" stop-color="#7c4dff"/><stop offset="1" stop-color="#00e5ff"/></linearGradient><filter id="glow"><feGaussianBlur stdDeviation="4" result="b"/><feMerge><feMergeNode in="b"/><feMergeNode in="SourceGraphic"/></feMerge></filter></defs><rect width="1200" height="360" rx="24" fill="#080b12"/><g opacity=".18" stroke="#8aa0b8"><path d="M0 60H1200M0 120H1200M0 180H1200M0 240H1200M0 300H1200"/><path d="M100 0V360M200 0V360M300 0V360M400 0V360M500 0V360M600 0V360M700 0V360M800 0V360M900 0V360M1000 0V360M1100 0V360"/></g><circle cx="600" cy="150" r="102" fill="none" stroke="url(#g)" stroke-width="2"><animate attributeName="r" values="92;118;92" dur="4s" repeatCount="indefinite"/><animate attributeName="opacity" values=".7;.15;.7" dur="4s" repeatCount="indefinite"/></circle><circle cx="600" cy="150" r="72" fill="none" stroke="#00e5ff" stroke-width="1" stroke-dasharray="4 10"><animateTransform attributeName="transform" type="rotate" from="0 600 150" to="360 600 150" dur="14s" repeatCount="indefinite"/></circle><text x="600" y="155" text-anchor="middle" font-family="ui-monospace,monospace" font-size="58" font-weight="700" fill="#f5f7fa" filter="url(#glow)">JEEVAN M</text><text x="600" y="202" text-anchor="middle" font-family="ui-monospace,monospace" font-size="20" letter-spacing="5" fill="#aebdce">DEVELOPER • BUILDER • STUDENT</text><path d="M280 252H920" stroke="url(#g)" stroke-width="2"/><text x="600" y="292" text-anchor="middle" font-family="ui-monospace,monospace" font-size="15" fill="#71849a">SOFTWARE • AI • AUTOMATION • SYSTEMS</text></svg>
